<svg fill="none" height="40" viewBox="0 0 40 40" width="40" xmlns="http://www.w3.org/2000/svg"><path d="m25.9667 14.0333 2.1952 7.8097c.0816.2901.0001.6017-.213.8148l-5.2621 5.2621c-.2131.2131-.5247.2945-.8148.213l-7.8096-2.1952m11.9043-11.9044-7.8096-2.1951c-.2901-.0816-.6017-.0001-.8148.213l-5.2621 5.2621c-.2131.2131-.2946.5246-.213.8148l2.1952 7.8096m11.9043-11.9044 2.283-2.2829m-14.1873 14.1873-2.3119 2.3119m16.4992-16.4992c1.3017 1.3018 3.4123 1.3018 4.714 0 1.3018-1.3017 1.3018-3.41228 0-4.71403-1.3017-1.30175-3.4123-1.30175-4.714 0-1.3018 1.30175-1.3018 3.41233 0 4.71403zm-16.4992 16.4992c1.3018 1.3017 1.3018 3.4123 0 4.714-1.3017 1.3018-3.41228 1.3018-4.71402 0-1.30175-1.3017-1.30175-3.4123 0-4.714 1.30174-1.3018 3.41232-1.3018 4.71402 0zm12.5263-18.41887-5.6147-1.4758c-1.1463-.30129-2.3663.02874-3.2044.86681l-6.23637 6.23636c-.83806.8381-1.1681 2.0581-.8668 3.2044l1.47579 5.6147m20.33908-8.5539 1.4758 5.6147c.3012 1.1463-.0288 2.3663-.8669 3.2044l-6.2363 6.2364c-.8381.838-2.0581 1.168-3.2044.8668l-5.6147-1.4758" stroke="#000" stroke-linecap="round" stroke-linejoin="round" stroke-width="2"/></svg>