<svg enable-background="new 0 0 32 32" viewBox="0 0 32 32" xmlns="http://www.w3.org/2000/svg"><path d="m1.36 18h-.72v-14c0-.199.161-.36.36-.36h9.131l-2.385-2.386.509-.509 3.254 3.255-3.255 3.254-.508-.508 2.385-2.386h-8.771zm29.28 9.64h-8.77l2.386-2.385-.51-.51-3.255 3.255 3.254 3.255.51-.51-2.386-2.385h9.131c.199 0 .36-.161.36-.36v-14h-.72zm-1.64-24h-6v.72h6zm0 2h-6v.72h6zm-2 2h-4v.72h4zm-18 16h-6v.721h6zm0 2h-6v.721h6zm-2 2h-4v.721h4zm10-12.64c0-.552-.448-1-1-1s-1 .448-1 1c0 .425.267.782.64.927v1.073c0 .199.161.36.36.36s.36-.161.36-.36v-1.073c.373-.145.64-.502.64-.927zm14.36-14v10c0 .199-.161.36-.36.36h-9.64v9.64c0 .199-.161.36-.36.36h-9.64v9.64c0 .199-.161.36-.36.36h-10c-.199 0-.36-.161-.36-.36v-10c0-.199.161-.36.36-.36h9.64v-9.64c0-.199.161-.36.36-.36h2.14v-2.14c0-1.577 1.283-2.86 2.86-2.86s2.86 1.283 2.86 2.86v2.14h1.779v-9.64c0-.199.161-.36.36-.36h10c.2 0 .361.161.361.36zm-17.5 9.64h4.28v-2.14c0-1.18-.96-2.14-2.14-2.14s-2.14.96-2.14 2.14zm-3.22 10.72h-9.28v9.279h9.28zm10-10h-9.28v9.28h9.28zm10-10h-9.28v9.28h9.279z"/><path d="m0 0h32v32h-32z" fill="none"/></svg>