<svg fill="none" height="24" viewBox="0 0 24 24" width="24" xmlns="http://www.w3.org/2000/svg"><g clip-rule="evenodd" fill="#47495f" fill-rule="evenodd"><path d="m11.5 5c-.8284 0-1.5.67157-1.5 1.5v1.5h-3.5c-.82843 0-1.5.67157-1.5 1.5v8c0 .8284.67157 1.5 1.5 1.5h6c.8284 0 1.5-.6716 1.5-1.5v-1.5h3.5c.8284 0 1.5-.6716 1.5-1.5v-8c0-.82843-.6716-1.5-1.5-1.5zm1.5 11h-1.5c-.8284 0-1.5-.6716-1.5-1.5v-5.5h-3.5c-.27614 0-.5.22386-.5.5v8c0 .2761.22386.5.5.5h6c.2761 0 .5-.2239.5-.5zm-2-9.5c0-.27614.2239-.5.5-.5h6c.2761 0 .5.22386.5.5v8c0 .2761-.2239.5-.5.5h-6c-.2761 0-.5-.2239-.5-.5z"/><path d="m12 8.5c0-.27614.2239-.5.5-.5h4c.2761 0 .5.22386.5.5s-.2239.5-.5.5h-4c-.2761 0-.5-.22386-.5-.5z"/><path d="m12 10.5c0-.2761.2239-.5.5-.5h2c.2761 0 .5.2239.5.5s-.2239.5-.5.5h-2c-.2761 0-.5-.2239-.5-.5z"/></g></svg>