<svg fill="none" height="24" viewBox="0 0 24 24" width="24" xmlns="http://www.w3.org/2000/svg"><path clip-rule="evenodd" d="m16 3.5c-.8284 0-1.5.67157-1.5 1.5 0 .65311.4174 1.20873 1 1.41465v1.08535h-8.5c-.82843 0-1.5.67157-1.5 1.5v6c0 .8284.67157 1.5 1.5 1.5h1.5v1.0854c-.5826.2059-1 .7615-1 1.4146 0 .8284.67157 1.5 1.5 1.5s1.5-.6716 1.5-1.5c0-.6531-.4174-1.2087-1-1.4146v-1.0854h7.5c.8284 0 1.5-.6716 1.5-1.5v-1.5854c.5826-.2059 1-.7615 1-1.4146s-.4174-1.2087-1-1.4146v-1.5854c0-.82843-.6716-1.5-1.5-1.5h-.5v-1.08535c.5826-.20592 1-.76154 1-1.41465 0-.82843-.6716-1.5-1.5-1.5zm-.5 1.5c0-.27614.2239-.5.5-.5s.5.22386.5.5-.2239.5-.5.5-.5-.22386-.5-.5zm2 5.5v-1.5c0-.27614-.2239-.5-.5-.5h-10c-.27614 0-.5.22386-.5.5v6c0 .2761.22386.5.5.5h10c.2761 0 .5-.2239.5-.5v-1.5h-3.5c-.8284 0-1.5-.6716-1.5-1.5s.6716-1.5 1.5-1.5zm-8.5 8c-.27614 0-.5.2239-.5.5s.22386.5.5.5.5-.2239.5-.5-.22386-.5-.5-.5zm4.5-6.5c0-.2761.2239-.5.5-.5h4c.2761 0 .5.2239.5.5s-.2239.5-.5.5h-4c-.2761 0-.5-.2239-.5-.5z" fill="#47495f" fill-rule="evenodd"/></svg>